<?xml version="1.0" encoding="utf-8"?>
<!-- Generator: Adobe Illustrator 14.0.0, SVG Export Plug-In  -->
<!DOCTYPE svg PUBLIC "-//W3C//DTD SVG 1.1//EN" "http://www.w3.org/Graphics/SVG/1.1/DTD/svg11.dtd" [
	<!ENTITY ns_flows "http://ns.adobe.com/Flows/1.0/">
]>
<svg version="1.1"
	 xmlns="http://www.w3.org/2000/svg" xmlns:xlink="http://www.w3.org/1999/xlink" xmlns:a="http://ns.adobe.com/AdobeSVGViewerExtensions/3.0/"
	 x="0px" y="0px" width="300px" height="120px" viewBox="165 138 300 120" enable-background="new 165 138 300 120"
	 xml:space="preserve">
<defs>
</defs>
<path fill="#F26822" d="M199.45,196.873c1.95,1.15,5,2.15,8.15,2.15c3.9,0,6.101-1.85,6.101-4.6c0-2.55-1.7-4.05-5.951-5.601
	c-5.6-2-9.15-4.95-9.15-9.8c0-5.551,4.6-9.701,11.951-9.701c3.65,0,6.3,0.8,8.051,1.7l-1.45,4.95c-1.25-0.65-3.6-1.6-6.75-1.6
	c-3.9,0-5.55,2.05-5.55,4.05c0,2.6,1.95,3.8,6.45,5.55c5.851,2.2,8.651,5.15,8.651,10c0,5.45-4.101,10.151-12.751,10.151
	c-3.6,0-7.3-1-9.15-2.15L199.45,196.873z"/>
<path fill="#F26822" d="M225.5,170.371c2.35-0.45,5.75-0.75,9.3-0.75c4.851,0,8.101,0.8,10.401,2.7c1.85,1.55,2.9,3.9,2.9,6.8
	c0,4.351-2.95,7.301-6.15,8.401v0.15c2.45,0.9,3.9,3.25,4.7,6.5c1.1,4.2,2,8.1,2.65,9.4h-6.3c-0.5-1-1.35-3.75-2.25-7.95
	c-1-4.4-2.55-5.8-6.05-5.9H231.6v13.851h-6.1V170.371z M231.6,185.222h3.65c4.15,0,6.701-2.2,6.701-5.55c0-3.65-2.55-5.4-6.551-5.4
	c-1.95,0-3.2,0.15-3.8,0.3V185.222z"/>
<path fill="#F26822" d="M260.1,169.871v33.702h-6.15v-33.702H260.1z"/>
<path fill="#F26822" d="M267.15,170.321c2.25-0.4,5.3-0.7,9.4-0.7c4.5,0,7.75,0.95,9.901,2.75c2,1.65,3.3,4.3,3.3,7.45
	c0,3.2-1,5.8-2.85,7.601c-2.5,2.45-6.3,3.65-10.65,3.65c-1.15,0-2.15-0.05-3-0.25v12.75h-6.1V170.321z M273.25,185.972
	c0.8,0.25,1.75,0.3,3,0.3c4.6,0,7.4-2.3,7.4-6.2c0-3.75-2.6-5.7-6.851-5.7c-1.7,0-2.9,0.15-3.55,0.3V185.972z"/>
<path fill="#F26822" d="M298.351,194.022l-2.9,9.55h-6.35l10.8-33.702h7.851l10.951,33.702h-6.651l-3.05-9.55H298.351z
	 M308.001,189.372l-2.65-8.301c-0.65-2.05-1.2-4.35-1.7-6.3h-0.1c-0.5,1.95-1.05,4.3-1.6,6.3l-2.6,8.301H308.001z"/>
<path fill="#F26822" d="M325.851,175.021h-9.601v-5.15h25.451v5.15h-9.7v28.551h-6.15V175.021z"/>
<path fill="#F26822" d="M353.551,175.021h-9.601v-5.15h25.451v5.15h-9.7v28.551h-6.15V175.021z"/>
<path fill="#F26822" d="M373.35,170.371c2.351-0.45,5.751-0.75,9.301-0.75c4.851,0,8.101,0.8,10.4,2.7c1.851,1.55,2.9,3.9,2.9,6.8
	c0,4.351-2.95,7.301-6.15,8.401v0.15c2.45,0.9,3.9,3.25,4.7,6.5c1.101,4.2,2,8.1,2.65,9.4h-6.3c-0.501-1-1.351-3.75-2.251-7.95
	c-1-4.4-2.55-5.8-6.05-5.9h-3.101v13.851h-6.101V170.371z M379.45,185.222h3.65c4.15,0,6.7-2.2,6.7-5.55c0-3.65-2.55-5.4-6.55-5.4
	c-1.95,0-3.2,0.15-3.801,0.3V185.222z"/>
<path fill="#F26822" d="M408.9,194.022l-2.9,9.55h-6.351l10.801-33.702h7.851l10.951,33.702h-6.65l-3.051-9.55H408.9z
	 M418.551,189.372l-2.65-8.301c-0.649-2.05-1.2-4.35-1.7-6.3h-0.1c-0.5,1.95-1.05,4.3-1.601,6.3l-2.6,8.301H418.551z"/>
<g>
	<defs>
		<rect id="SVGID_1_" width="612" height="792"/>
	</defs>
	<clipPath id="SVGID_2_">
		<use xlink:href="#SVGID_1_"  overflow="visible"/>
	</clipPath>
	<path clip-path="url(#SVGID_2_)" fill="#F26822" d="M201.593,224.617l0.02-0.228c0.02-0.167,0.068-0.414,0.123-0.612
		c0.107-0.343,0.225-0.606,0.37-0.854c0.284-0.485,0.612-0.86,0.926-1.151c0.64-0.602,1.265-0.987,1.881-1.336
		c1.233-0.68,2.441-1.146,3.649-1.571c2.415-0.834,4.821-1.435,7.231-1.978c4.819-1.067,9.647-1.847,14.479-2.539
		c9.666-1.36,19.35-2.325,29.041-3.149c19.382-1.621,38.787-2.638,58.197-3.393c38.822-1.473,77.664-1.85,116.49-1.529
		c-38.825,0.348-77.646,1.391-116.396,3.527c-19.372,1.087-38.731,2.434-58.014,4.381c-9.637,0.988-19.262,2.114-28.797,3.624
		c-4.762,0.765-9.512,1.618-14.154,2.729c-2.313,0.562-4.613,1.186-6.775,1.975c-1.072,0.396-2.126,0.837-3.01,1.35
		c-0.435,0.25-0.837,0.53-1.073,0.771c-0.132,0.12-0.191,0.223-0.213,0.259c-0.012,0.015-0.006,0.033,0.006-0.022
		c0.022-0.049,0.029-0.15,0.022-0.17l-0.016,0.228L201.593,224.617z"/>
	<path clip-path="url(#SVGID_2_)" fill="#F26822" d="M201.593,225.283l0.02-0.227c0.02-0.168,0.068-0.414,0.123-0.612
		c0.107-0.343,0.225-0.606,0.37-0.854c0.284-0.484,0.612-0.859,0.926-1.15c0.64-0.602,1.265-0.987,1.881-1.336
		c1.233-0.68,2.441-1.146,3.649-1.572c2.415-0.834,4.821-1.434,7.231-1.977c4.819-1.068,9.647-1.848,14.479-2.539
		c9.666-1.361,19.35-2.325,29.041-3.15c19.382-1.621,38.787-2.637,58.197-3.393c38.822-1.473,77.664-2.516,116.49-2.196
		c-38.825,0.348-77.646,2.058-116.396,4.194c-19.372,1.088-38.731,2.435-58.014,4.381c-9.637,0.988-19.262,2.115-28.797,3.625
		c-4.762,0.765-9.512,1.617-14.154,2.729c-2.313,0.562-4.613,1.185-6.775,1.974c-1.072,0.396-2.126,0.838-3.01,1.35
		c-0.435,0.251-0.837,0.531-1.073,0.771c-0.132,0.121-0.191,0.223-0.213,0.26c-0.012,0.014-0.006,0.033,0.006-0.022
		c0.022-0.05,0.029-0.151,0.022-0.17l-0.016,0.228L201.593,225.283z"/>
</g>
<path fill="#A2A4A7" d="M327.861,231.268L322.5,212.92h2.885l2.508,9.283c0.628,2.286,1.192,4.572,1.568,6.342h0.062
	c0.345-1.823,1.004-4.001,1.725-6.369l2.822-9.256h2.854l2.571,9.311c0.596,2.178,1.16,4.355,1.474,6.287h0.062
	c0.439-2.014,1.035-4.056,1.693-6.342l2.791-9.256h2.791l-5.989,18.348h-2.854l-2.665-9.555c-0.659-2.342-1.098-4.138-1.38-5.988
	h-0.063c-0.345,1.823-0.846,3.62-1.63,5.988l-3.011,9.555H327.861z"/>
<path fill="#A2A4A7" d="M353.664,212.92v18.348h-2.76V212.92H353.664z"/>
<path fill="#A2A4A7" d="M358.429,231.268V212.92h3.011l6.741,9.283c1.537,2.15,2.791,4.083,3.763,5.961l0.095-0.027
	c-0.251-2.449-0.313-4.682-0.313-7.54v-7.677h2.571v18.348h-2.76l-6.71-9.31c-1.475-2.042-2.885-4.138-3.92-6.125l-0.094,0.027
	c0.156,2.313,0.188,4.519,0.188,7.567v7.84H358.429z"/>
<path fill="#A2A4A7" d="M379.058,231.268V212.92h3.011l6.741,9.283c1.537,2.15,2.791,4.083,3.763,5.961l0.095-0.027
	c-0.251-2.449-0.313-4.682-0.313-7.54v-7.677h2.571v18.348h-2.76l-6.71-9.31c-1.475-2.042-2.885-4.138-3.92-6.125l-0.094,0.027
	c0.156,2.313,0.188,4.519,0.188,7.567v7.84H379.058z"/>
<path fill="#A2A4A7" d="M410.599,222.666h-8.184v6.614h9.156v1.987h-11.916V212.92h11.445v1.987h-8.686v5.798h8.184V222.666z"/>
<path fill="#A2A4A7" d="M415.111,213.165c1.38-0.218,3.387-0.381,5.237-0.381c2.916,0,4.828,0.489,6.114,1.497
	c1.035,0.816,1.662,2.068,1.662,3.512c0,2.396-1.756,4.002-3.951,4.654v0.082c1.6,0.49,2.571,1.797,3.073,3.702
	c0.689,2.56,1.191,4.328,1.63,5.036h-2.822c-0.345-0.545-0.814-2.096-1.379-4.383c-0.628-2.531-1.788-3.484-4.265-3.566h-2.571
	v7.949h-2.729V213.165z M417.84,221.522h2.791c2.916,0,4.766-1.389,4.766-3.484c0-2.368-1.976-3.403-4.86-3.403
	c-1.316,0-2.227,0.082-2.696,0.191V221.522z"/>
</svg>
