<svg id="Flat" height="512" viewBox="0 0 512 512" width="512" xmlns="http://www.w3.org/2000/svg"><path d="m416 96 72 96-48 56-48-24h-272l-48 24-48-56 72-96z" fill="#f7aa23"/><path d="m176 64-80 32 32 184-16 208h288l-16-208 32-184-80-32z" fill="#fbbe1f"/><path d="m312 24v48l-56 40-56-40v-48z" fill="#f79726"/><path d="m312 56v16l-56 40-56-40v-16z" fill="#fbbe1f"/><g fill="#f7aa23"><path d="m224 136 32-24-56-88-24 40z"/><path d="m288 136-32-24 56-88 24 40z"/><rect height="72" rx="8" width="16" x="248" y="112"/></g></svg>