<?xml version="1.0" encoding="utf-8"?>
<!-- Generator: Adobe Illustrator 19.0.0, SVG Export Plug-In . SVG Version: 6.00 Build 0)  -->
<svg version="1.1" id="Layer_1" xmlns="http://www.w3.org/2000/svg" xmlns:xlink="http://www.w3.org/1999/xlink" x="0px" y="0px"
	 viewBox="0 0 512 512" style="enable-background:new 0 0 512 512;" xml:space="preserve">
<style type="text/css">
	.st0{fill:#FABC3D;}
	.st1{fill:#0484AB;}
	.st2{fill:#059BBF;}
	.st3{fill:#40C9E7;}
	.st4{fill:#21B2D1;}
	.st5{fill:#6FDAF1;}
</style>
<g id="XMLID_1_">
	<circle id="XMLID_3_" class="st0" cx="256" cy="256" r="256"/>
	<path id="XMLID_4_" class="st1" d="M311.9,126L293,107.1h-74.8L199.3,126l-89.8,28.4c-1.6,0.8-3.2,2.4-3.2,4.7v85.1
		c0,1.6,0.8,2.4,1.6,3.2c0.8,0.8,2.4,1.6,3.9,0.8l41-6.3v153.6c0,5.5,3.9,9.5,9.5,9.5h185.9c5.5,0,9.5-3.9,9.5-9.5V241.8l41,6.3
		c1.6,0,2.4,0,3.9-0.8c0.8-0.8,1.6-2.4,1.6-3.2v-85.1c0-2.4-1.6-3.9-3.2-4.7L311.9,126z"/>
	<path id="XMLID_5_" class="st2" d="M256,107.1h-4.7H219L200.1,126l-89.8,28.4c-1.6,0.8-3.2,2.4-3.2,4.7v85.1c0,1.6,0.8,2.4,1.6,3.2
		c0.8,0.8,2.4,1.6,3.9,0.8l41-6.3v153.6c0,5.5,3.9,9.5,9.5,9.5H256V107.1z"/>
	<path id="XMLID_6_" class="st3" d="M386,149.7l15.8,4.7c1.6,0.8,3.2,2.4,3.2,4.7v85.1c0,1.6-0.8,2.4-1.6,3.2
		c-0.8,0.8-2.4,0.8-3.9,0.8l-13.4-2.4V149.7z"/>
	<polygon id="XMLID_7_" class="st3" points="228.4,241.8 200.1,251.3 172.5,241.8 172.5,190.6 228.4,190.6 	"/>
	<rect id="XMLID_8_" x="172.5" y="190.6" class="st4" width="55.9" height="18.9"/>
	<polygon id="XMLID_9_" class="st3" points="334.8,241.8 307.2,251.3 279.6,241.8 279.6,190.6 334.8,190.6 	"/>
	<rect id="XMLID_10_" x="279.6" y="190.6" class="st4" width="55.9" height="18.9"/>
	<path id="XMLID_11_" class="st3" d="M126,149.7l-15.8,4.7c-1.6,0.8-3.2,2.4-3.2,4.7v85.1c0,1.6,0.8,2.4,1.6,3.2
		c0.8,0.8,2.4,1.6,3.9,0.8l13.4-2.4C126,245.8,126,149.7,126,149.7z"/>
	<path id="XMLID_12_" class="st1" d="M256,107.1h-37c0,18.9,9.5,37,37,37s37-18.1,37-37C293,107.1,256,107.1,256,107.1z"/>
	<path id="XMLID_13_" class="st5" d="M311.9,126L293,107.1c0,18.9-9.5,37-37,37s-37-18.1-37-37L200.1,126l0,0v41.7l55.9-18.9
		l55.9,18.9L311.9,126L311.9,126z"/>
</g>
</svg>
